<!-- Generator: Adobe Illustrator 22.1.0, SVG Export Plug-In  -->
<svg version="1.1"
	 xmlns="http://www.w3.org/2000/svg" xmlns:xlink="http://www.w3.org/1999/xlink" xmlns:a="http://ns.adobe.com/AdobeSVGViewerExtensions/3.0/"
	 x="0px" y="0px" width="26px" height="35.7px" viewBox="0 0 26 35.7" style="enable-background:new 0 0 26 35.7;"
	 xml:space="preserve">
<style type="text/css">
	.st0{fill:#FFFFFF;}
</style>
<defs>
</defs>
<g>
	<path class="st0" d="M6.3,6.2V4h2.8V3.6c0-0.5,0.1-1,0.4-1.4H6.3V0L3.6,1.6L0.9,3.1l2.7,1.6L6.3,6.2z"/>
	<path class="st0" d="M14.5,3.6V4h2.7v2.2l2.7-1.6l2.7-1.6l-2.7-1.6L17.2,0v2.2h-3.1C14.3,2.6,14.5,3.1,14.5,3.6z"/>
	<path class="st0" d="M25.9,19v-5.5c0-1-0.8-1.8-1.8-1.8c-1,0-1.8,0.8-1.8,1.8V14c-0.2-0.1-0.3-0.1-0.5-0.2V11c0-1-0.8-1.8-1.8-1.8
		c-1,0-1.8,0.8-1.8,1.8v1.6c-0.2-0.1-0.3-0.1-0.5-0.2V9.4c0-1-0.8-1.8-1.8-1.8c-1,0-1.8,0.8-1.8,1.8v2.4c-0.2,0-0.3,0.1-0.5,0.1V3.6
		c0-1-0.8-1.8-1.8-1.8c-1,0-1.8,0.8-1.8,1.8v13.3c-0.4,4.9-3.3,3.6-5.2,3.4c-3.1-0.3-4.8,1-4.8,2c0,0.3,0.1,2.2,1,2.1
		c0.6-0.1,4.1-0.4,6,1.3c1.4,1.3,3.9,3.1,5,3.9v6.1h12.2v-6.5c0.9-1.4,1.6-3.2,1.6-4.8c0.1-1.6,0.1-3.1,0.2-4.7
		C26,19.5,26,19.2,25.9,19z"/>
</g>
</svg>
