<!-- Generator: Adobe Illustrator 22.1.0, SVG Export Plug-In  -->
<svg version="1.1"
	 xmlns="http://www.w3.org/2000/svg" xmlns:xlink="http://www.w3.org/1999/xlink" xmlns:a="http://ns.adobe.com/AdobeSVGViewerExtensions/3.0/"
	 x="0px" y="0px" width="55px" height="51.1px" viewBox="0 0 55 51.1" style="enable-background:new 0 0 55 51.1;"
	 xml:space="preserve">
<style type="text/css">
	.st0{fill:#A67C52;}
	.st1{fill:#754C24;}
</style>
<defs>
</defs>
<g>
	<path class="st0" d="M12.1,2.4c0,0,32.6-9.8,41.3,10c8.7,19.7-20.6,37.2-20.6,37.2s-4.2-2.8-13-22.8C11.3,7.3,12.1,2.4,12.1,2.4z"
		/>
	<path class="st1" d="M9.6,31c0,0-12.5,4.5-9,10.3l2-0.5C2.6,40.9,1.4,36.6,9.6,31z"/>
	<path class="st1" d="M13.1,2C0.1,7.7-0.4,20.5,5.4,33.6c5.7,13,15.5,21.4,28.5,15.7c0,0-4.2-2.8-13-22.8C12.3,6.8,13.1,2,13.1,2z"
		/>
</g>
</svg>
