<!-- Generator: Adobe Illustrator 22.1.0, SVG Export Plug-In  -->
<svg version="1.1"
	 xmlns="http://www.w3.org/2000/svg" xmlns:xlink="http://www.w3.org/1999/xlink" xmlns:a="http://ns.adobe.com/AdobeSVGViewerExtensions/3.0/"
	 x="0px" y="0px" width="67.4px" height="62.2px" viewBox="0 0 67.4 62.2" style="enable-background:new 0 0 67.4 62.2;"
	 xml:space="preserve">
<style type="text/css">
	.st0{fill:#808080;}
	.st1{fill:#F2F2F2;}
	.st2{fill:#333333;}
	.st3{fill:#666666;}
	.st4{fill:#4D4D4D;}
	.st5{fill:#98B67F;}
	.st6{fill:#86A070;}
</style>
<defs>
</defs>
<rect class="st0" width="22.5" height="62.2"/>
<g>
	<path class="st1" d="M16.9,47.7c0,3.1-2.6,5.7-5.7,5.7c-3.1,0-5.7-2.6-5.7-5.7c0-3.2,2.6-5.7,5.7-5.7C14.4,42,16.9,44.6,16.9,47.7z
		"/>
	<path class="st2" d="M16.1,47.7c0,2.7-2.2,4.9-4.9,4.9c-2.7,0-4.9-2.2-4.9-4.9c0-2.7,2.2-4.9,4.9-4.9C13.9,42.8,16.1,45,16.1,47.7z
		"/>
</g>
<g>
	<rect x="3.4" y="9.3" class="st3" width="15.7" height="25.6"/>
	<g>
		<rect x="5.5" y="12.2" class="st1" width="11.4" height="3.5"/>
		<rect x="5.5" y="17.7" class="st1" width="11.4" height="3.5"/>
		<rect x="5.5" y="22.9" class="st1" width="11.4" height="3.5"/>
		<rect x="5.5" y="28.5" class="st1" width="11.4" height="3.5"/>
	</g>
</g>
<rect x="22.5" class="st2" width="22.5" height="62.2"/>
<g>
	<path class="st1" d="M39.4,47.7c0,3.1-2.6,5.7-5.7,5.7c-3.1,0-5.7-2.6-5.7-5.7c0-3.2,2.6-5.7,5.7-5.7C36.8,42,39.4,44.6,39.4,47.7z
		"/>
	<path class="st2" d="M38.7,47.7c0,2.7-2.2,5-5,5s-5-2.2-5-5c0-2.7,2.2-5,5-5S38.7,45,38.7,47.7z"/>
</g>
<g>
	<rect x="25.8" y="9.3" class="st4" width="15.7" height="25.6"/>
	<g>
		<rect x="28" y="12.2" class="st1" width="11.4" height="3.5"/>
		<rect x="28" y="17.7" class="st1" width="11.4" height="3.5"/>
		<rect x="28" y="22.9" class="st1" width="11.4" height="3.5"/>
		<rect x="28" y="28.5" class="st1" width="11.4" height="3.5"/>
	</g>
</g>
<rect x="50.1" y="14.4" class="st5" width="17.3" height="47.8"/>
<g>
	<path class="st1" d="M63.1,48.9c0,2.4-2,4.4-4.4,4.4c-2.4,0-4.4-2-4.4-4.4c0-2.4,2-4.4,4.4-4.4C61.2,44.5,63.1,46.4,63.1,48.9z"/>
	<path class="st2" d="M62.5,48.9c0,2.1-1.7,3.8-3.8,3.8c-2.1,0-3.8-1.7-3.8-3.8c0-2.1,1.7-3.8,3.8-3.8
		C60.8,45.1,62.5,46.8,62.5,48.9z"/>
</g>
<g>
	<rect x="52.7" y="20.8" class="st6" width="12.1" height="19.7"/>
	<g>
		<rect x="54.6" y="23.5" class="st1" width="8.3" height="3.5"/>
		<rect x="54.6" y="28.9" class="st1" width="8.3" height="3.5"/>
		<rect x="54.6" y="34.2" class="st1" width="8.3" height="3.5"/>
	</g>
</g>
</svg>
