<!-- Generator: Adobe Illustrator 22.1.0, SVG Export Plug-In  -->
<svg version="1.1"
	 xmlns="http://www.w3.org/2000/svg" xmlns:xlink="http://www.w3.org/1999/xlink" xmlns:a="http://ns.adobe.com/AdobeSVGViewerExtensions/3.0/"
	 x="0px" y="0px" width="89.8px" height="171.3px" viewBox="0 0 89.8 171.3" style="enable-background:new 0 0 89.8 171.3;"
	 xml:space="preserve">
<style type="text/css">
	.st0{fill:#ECE8BD;}
	.st1{fill:#FFFFFF;}
	.st2{fill:url(#SVGID_1_);}
	.st3{fill:#1A1A1A;}
	.st4{fill:#333333;}
	.st5{fill:url(#SVGID_2_);}
</style>
<defs>
</defs>
<g>
	<g>
		<path class="st0" d="M75.6,138.4c0,17-13.8,23.6-30.7,23.6c-17,0-30.7-6.6-30.7-23.6c0,0,5.1,3.2,31,3.2
			C70.7,141.7,75.6,138.4,75.6,138.4z"/>
		<path class="st1" d="M31.9,137c0,0,2.1,17,13,17c10.9,0,13-17,13-17s-2.2-1.4-13.2-1.4C34,135.6,31.9,137,31.9,137z"/>
		<radialGradient id="SVGID_1_" cx="44.9077" cy="146.6152" r="24.7139" gradientUnits="userSpaceOnUse">
			<stop  offset="0" style="stop-color:#F2F2F2"/>
			<stop  offset="1" style="stop-color:#FFFFFF;stop-opacity:0"/>
		</radialGradient>
		<path class="st2" d="M69.6,146.6c0,13.6-11.1,24.7-24.7,24.7c-13.6,0-24.7-11.1-24.7-24.7s11.1-24.7,24.7-24.7
			C58.6,121.9,69.6,133,69.6,146.6z"/>
	</g>
	<rect x="42.5" y="3.1" class="st3" width="4.8" height="69.4"/>
	<g>
		<g>
			<path class="st4" d="M57.7,81.9c-1-1.7-2.2-4.6-2.7-6.4l-1.9-6.8c-0.5-1.9-2.5-3.4-4.5-3.4h-7.9c-1.9,0-3.9,1.5-4.4,3.4l-1.7,6.9
				c-0.5,1.9-1.7,4.8-2.7,6.5L0,132.9c-0.2,1.9,0.9,4.4,2.5,5.4c0,0,4.5,2.9,42.8,2.9c37.7,0,41.9-2.8,41.9-2.8
				c1.6-1.1,2.7-3.5,2.5-5.5L57.7,81.9z"/>
		</g>
		<g>
			<path class="st4" d="M57.7,3.4C58.2,1.5,57.1,0,55.1,0H34.7c-1.9,0-3.1,1.5-2.7,3.4l4.3,17.1c0.5,1.9,2.5,3.4,4.4,3.4h7.9
				c1.9,0,3.9-1.5,4.5-3.4L57.7,3.4z"/>
		</g>
	</g>
</g>
</svg>
