<!-- Generator: Adobe Illustrator 22.1.0, SVG Export Plug-In  -->
<svg version="1.1"
	 xmlns="http://www.w3.org/2000/svg" xmlns:xlink="http://www.w3.org/1999/xlink" xmlns:a="http://ns.adobe.com/AdobeSVGViewerExtensions/3.0/"
	 x="0px" y="0px" width="114.7px" height="93.7px" viewBox="0 0 114.7 93.7" style="enable-background:new 0 0 114.7 93.7;"
	 xml:space="preserve">
<style type="text/css">
	.st0{fill:#333333;}
	.st1{fill:#736357;}
	.st2{fill:#534741;}
	.st3{fill:#98B67F;}
	.st4{fill:#86A070;}
</style>
<defs>
</defs>
<g>
	<g>
		<path class="st0" d="M10.7,90.8c0,1.6-1.2,2.9-2.6,2.9H2.6c-1.4,0-2.6-1.3-2.6-2.9v-49c0-1.6,1.2-2.9,2.6-2.9h5.6
			c1.4,0,2.6,1.3,2.6,2.9V90.8z"/>
		<g>
			<path class="st1" d="M44,40.4v29.8v8.6v2.3c0,1.2-1,2.2-2.3,2.2H7.6c-1.3,0-1.4-1-1.4-2.2V70.3c0-1.2,0.1-2.2,1.4-2.2
				c0,0,26.8,0.4,28.6-1.3c5.1-4.9,4-26.4,4-26.4c0-1,0.9-1.1,1.9-1.1C43.1,39.3,44,39.4,44,40.4z"/>
			<path class="st2" d="M32.1,70.9c0,1,0.4,1.8,0.8,1.8c0.4,0,0.8-0.8,0.8-1.8c0-1-0.4-1.8-0.8-1.8C32.5,69.1,32.1,69.9,32.1,70.9z"
				/>
			<path class="st2" d="M31.5,78.4c0,1.5,0.5,2.8,1.1,2.8c0.6,0,1.1-1.2,1.1-2.8c0-1.5-0.5-2.8-1.1-2.8C32,75.6,31.5,76.8,31.5,78.4
				z"/>
			<g>
				<path class="st3" d="M25.9,48.4c0,8.1,6.9,14.7,15.4,14.7c8.5,0,15.4-6.6,15.4-14.7c0-8.1-6.9-14.7-15.4-14.7
					C32.8,33.6,25.9,40.2,25.9,48.4z"/>
				<path class="st3" d="M49.4,33.8c0,4.3,3.7,7.8,8.2,7.8c4.5,0,8.2-3.5,8.2-7.8c0-4.3-3.7-7.8-8.2-7.8
					C53,25.9,49.4,29.4,49.4,33.8z"/>
				<path class="st3" d="M14.5,28c0,12,10.1,21.7,22.7,21.7c12.5,0,22.7-9.7,22.7-21.7c0-12-10.1-21.7-22.7-21.7
					C24.6,6.3,14.5,16,14.5,28z"/>
			</g>
		</g>
		<path class="st3" d="M114.7,31.5c0,11.3-9.1,20.4-20.4,20.4C83,52,73.8,42.8,73.8,31.5c0-11.3,9.1-20.4,20.4-20.4
			C105.5,11.1,114.7,20.3,114.7,31.5z"/>
		<circle class="st3" cx="49.2" cy="25.9" r="20.9"/>
		<path class="st3" d="M76.4,11c0,6.1-4.9,11-11,11c-6.1,0-11-4.9-11-11c0-6.1,4.9-11,11-11C71.5,0,76.4,4.9,76.4,11z"/>
		<path class="st3" d="M91.9,34.4c0,10.8-8.8,19.5-19.5,19.5c-10.8,0-19.5-8.8-19.5-19.5s8.8-19.5,19.5-19.5
			C83.2,14.9,91.9,23.6,91.9,34.4z"/>
		<path class="st3" d="M73.8,46.1c0,8.4-6.8,15.3-15.3,15.3s-15.3-6.8-15.3-15.3c0-8.4,6.8-15.3,15.3-15.3S73.8,37.7,73.8,46.1z"/>
	</g>
	<path class="st3" d="M87.2,28.1c0,0.8-0.6,1.5-1.3,1.5c-0.7,0-1.3-0.7-1.3-1.5c0-0.8,0.6-1.5,1.3-1.5
		C86.6,26.6,87.2,27.2,87.2,28.1z"/>
	<path class="st3" d="M77.5,29.7c0,9.1-7.4,16.6-16.6,16.6c-9.1,0-16.6-7.4-16.6-16.6c0-9.1,7.4-16.6,16.6-16.6
		C70.1,13.2,77.5,20.6,77.5,29.7z"/>
	<path class="st4" d="M96.8,44.1c0,3-2.4,5.4-5.4,5.4c-3,0-5.4-2.4-5.4-5.4c0-3,2.4-5.4,5.4-5.4C94.4,38.7,96.8,41.1,96.8,44.1z"/>
</g>
</svg>
