<!-- Generator: Adobe Illustrator 22.1.0, SVG Export Plug-In  -->
<svg version="1.1"
	 xmlns="http://www.w3.org/2000/svg" xmlns:xlink="http://www.w3.org/1999/xlink" xmlns:a="http://ns.adobe.com/AdobeSVGViewerExtensions/3.0/"
	 x="0px" y="0px" width="107.4px" height="120.6px" viewBox="0 0 107.4 120.6" style="enable-background:new 0 0 107.4 120.6;"
	 xml:space="preserve">
<style type="text/css">
	.st0{fill:#D0E5C1;}
	.st1{fill:#F7931E;}
	.st2{fill:#998675;}
	.st3{opacity:0.3;fill:#D0E5C1;}
	.st4{opacity:0.3;fill:#F9EED9;}
</style>
<defs>
</defs>
<g>
	<polygon class="st0" points="22.8,120.6 83.7,120.6 106.6,42.7 0,42.7 	"/>
	<g>
		<path class="st1" d="M93.2,82.2c0,11.5-9.3,20.8-20.8,20.8c-11.5,0-20.8-9.3-20.8-20.8c0-11.5,9.3-20.8,20.8-20.8
			C83.9,61.4,93.2,70.7,93.2,82.2z"/>
		<path class="st2" d="M68.7,71.4c0,1.5-1.2,2.8-2.8,2.8c-1.5,0-2.8-1.2-2.8-2.8c0-1.5,1.2-2.8,2.8-2.8
			C67.4,68.7,68.7,69.9,68.7,71.4z"/>
	</g>
	<g>
		<path class="st1" d="M56.6,101.7c0,9.6-7.8,17.5-17.5,17.5c-9.6,0-17.5-7.8-17.5-17.5c0-9.6,7.8-17.5,17.5-17.5
			C48.7,84.2,56.6,92.1,56.6,101.7z"/>
		<path class="st2" d="M45.1,91.3c0,1.2-1,2.2-2.2,2.2s-2.2-1-2.2-2.2c0-1.2,1-2.2,2.2-2.2S45.1,90.1,45.1,91.3z"/>
	</g>
	<g>
		<path class="st1" d="M41.7,71.6c0,8.9-7.2,16.1-16.1,16.1c-8.9,0-16.1-7.2-16.1-16.1c0-8.9,7.2-16.1,16.1-16.1
			C34.5,55.5,41.7,62.7,41.7,71.6z"/>
		<path class="st2" d="M17.1,64.7c0,0.9-0.7,1.6-1.6,1.6c-0.9,0-1.6-0.7-1.6-1.6c0-0.9,0.7-1.6,1.6-1.6
			C16.4,63.1,17.1,63.8,17.1,64.7z"/>
	</g>
	<g>
		<path class="st1" d="M71.8,47.4c0,11-8.9,19.9-19.9,19.9c-11,0-19.9-8.9-19.9-19.9c0-11,8.9-19.9,19.9-19.9
			C62.9,27.5,71.8,36.4,71.8,47.4z"/>
		<path class="st2" d="M56.9,56.6c0,1.1-0.9,1.9-1.9,1.9c-1.1,0-1.9-0.9-1.9-1.9c0-1.1,0.9-1.9,1.9-1.9
			C56.1,54.7,56.9,55.5,56.9,56.6z"/>
	</g>
	<g>
		<path class="st1" d="M107.4,33.9c0,10.5-8.5,19-19,19c-10.5,0-19-8.5-19-19c0-10.5,8.5-19,19-19C98.9,14.9,107.4,23.4,107.4,33.9z
			"/>
		<path class="st2" d="M83.9,25.1c0,1-0.9,1.9-1.9,1.9c-1.1,0-1.9-0.9-1.9-1.9c0-1.1,0.9-1.9,1.9-1.9C83,23.2,83.9,24,83.9,25.1z"/>
	</g>
	<g>
		<path class="st1" d="M76.8,15.4c0,8.5-6.9,15.4-15.4,15.4c-8.5,0-15.4-6.9-15.4-15.4C46,6.9,52.9,0,61.4,0
			C69.9,0,76.8,6.9,76.8,15.4z"/>
		<path class="st2" d="M60.2,14c0,1.1-0.9,2.1-2.1,2.1C57,16.1,56,15.2,56,14c0-1.1,0.9-2.1,2.1-2.1C59.3,11.9,60.2,12.9,60.2,14z"
			/>
	</g>
	<polygon class="st3" points="22.8,120.6 83.7,120.6 106.6,42.7 0,42.7 	"/>
	<polygon class="st4" points="27.1,115.1 79.5,115.1 99.1,48.2 	"/>
</g>
</svg>
