<!-- Generator: Adobe Illustrator 22.1.0, SVG Export Plug-In  -->
<svg version="1.1"
	 xmlns="http://www.w3.org/2000/svg" xmlns:xlink="http://www.w3.org/1999/xlink" xmlns:a="http://ns.adobe.com/AdobeSVGViewerExtensions/3.0/"
	 x="0px" y="0px" width="66.1px" height="103.6px" viewBox="0 0 66.1 103.6" style="enable-background:new 0 0 66.1 103.6;"
	 xml:space="preserve">
<style type="text/css">
	.st0{fill:#333333;}
	.st1{fill:#736357;}
	.st2{fill:#534741;}
	.st3{fill:#98B67F;}
	.st4{fill:#86A070;}
</style>
<defs>
</defs>
<g>
	<path class="st0" d="M38.8,100.5c0,1.7-0.8,3.1-1.8,3.1h-4c-1,0-1.8-1.4-1.8-3.1V48.8c0-1.7,0.8-3,1.8-3h4c1,0,1.8,1.4,1.8,3V100.5
		z"/>
	<path class="st1" d="M50.1,77.3v11.7v3.4v0.9c0,0.5-0.4,0.9-0.9,0.9H35.8c-0.5,0-0.5-0.4-0.5-0.9v-4.3c0-0.5,0-0.9,0.5-0.9
		c0,0,10.6,0.2,11.2-0.5c2-1.9,1.6-10.4,1.6-10.4c0-0.4,0.3-0.4,0.7-0.4C49.8,76.9,50.1,77,50.1,77.3z"/>
	<path class="st2" d="M45.5,89.3c0,0.4,0.1,0.7,0.3,0.7c0.2,0,0.3-0.3,0.3-0.7c0-0.4-0.1-0.7-0.3-0.7C45.6,88.6,45.5,88.9,45.5,89.3
		z"/>
	<path class="st2" d="M45.2,92.3c0,0.6,0.2,1.1,0.4,1.1c0.2,0,0.4-0.5,0.4-1.1c0-0.6-0.2-1.1-0.4-1.1C45.4,91.2,45.2,91.7,45.2,92.3
		z"/>
	<g>
		<path class="st1" d="M18.6,25.7v33.6V69v2.6c0,1.4,1.1,2.5,2.5,2.5h12.3c1.4,0,1.5-1.1,1.5-2.5V59.3c0-1.4-0.1-2.5-1.5-2.5
			c0,0-4.5,0.4-6.4-1.4c-5.5-5.5-4.3-29.7-4.3-29.7c0-1.1-0.9-1.2-2.1-1.2C19.5,24.5,18.6,24.6,18.6,25.7z"/>
		<path class="st2" d="M21.7,51.3c0,2-0.4,3.6-0.8,3.6c-0.5,0-0.8-1.6-0.8-3.6c0-2,0.4-3.6,0.8-3.6C21.4,47.6,21.7,49.3,21.7,51.3z"
			/>
		<path class="st2" d="M24.9,62.6c0,1-0.2,1.8-0.5,1.8c-0.3,0-0.5-0.8-0.5-1.8c0-1,0.2-1.8,0.5-1.8C24.6,60.8,24.9,61.6,24.9,62.6z"
			/>
		<path class="st2" d="M30.9,63c0,1.1-0.2,2-0.4,2c-0.2,0-0.5-0.9-0.5-2c0-1.1,0.2-2,0.5-2C30.7,61,30.9,61.9,30.9,63z"/>
		<path class="st2" d="M27,67.6c0,1.7-0.3,3.1-0.6,3.1c-0.3,0-0.6-1.4-0.6-3.1c0-1.7,0.3-3.1,0.6-3.1C26.7,64.4,27,65.8,27,67.6z"/>
	</g>
	<g>
		<g>
			<path class="st1" d="M8,46.2v17V68v1.3c0,0.7,0.6,1.2,1.2,1.2h12.4c0.7,0,0.7-0.6,0.7-1.2v-6.2c0-0.7,0-1.2-0.7-1.2
				c0,0-8.4,0.2-9.4-0.7c-2.8-2.8-2.2-15-2.2-15c0-0.6-0.5-0.6-1-0.6C8.5,45.6,8,45.6,8,46.2z"/>
			<path class="st2" d="M13.1,68.1c0,0.5-0.1,0.9-0.3,0.9c-0.2,0-0.3-0.4-0.3-0.9c0-0.5,0.1-0.9,0.3-0.9
				C13,67.2,13.1,67.6,13.1,68.1z"/>
			<path class="st2" d="M14.2,65c0,0.6-0.1,1-0.2,1c-0.1,0-0.2-0.4-0.2-1c0-0.6,0.1-1,0.2-1C14.1,64,14.2,64.5,14.2,65z"/>
		</g>
		<g>
			<path class="st3" d="M0.7,39.8c0-2.7,2.2-4.8,4.8-4.8c2.7,0,4.8,2.2,4.8,4.8c0,2.7-2.2,4.8-4.8,4.8C2.8,44.6,0.7,42.5,0.7,39.8z"
				/>
			<path class="st3" d="M5.8,43c0-2.8,2.2-5,5-5c2.8,0,5,2.2,5,5c0,2.8-2.2,5-5,5C8,47.9,5.8,45.7,5.8,43z"/>
			<path class="st3" d="M3.2,49.5c0-4,3.3-7.3,7.3-7.3c4,0,7.3,3.3,7.3,7.3c0,4-3.3,7.3-7.3,7.3C6.5,56.8,3.2,53.5,3.2,49.5z"/>
			<circle class="st3" cx="4.3" cy="53.4" r="4.3"/>
		</g>
	</g>
	<g>
		<path class="st3" d="M40.8,74.7c0,5.2,4.4,9.5,9.9,9.5c5.5,0,9.9-4.2,9.9-9.5c0-5.2-4.4-9.5-9.9-9.5
			C45.3,65.3,40.8,69.5,40.8,74.7z"/>
		<path class="st3" d="M53.3,67.2c0,2.8,2.4,5,5.3,5c2.9,0,5.3-2.3,5.3-5c0-2.8-2.4-5-5.3-5C55.7,62.2,53.3,64.4,53.3,67.2z"/>
		<path class="st3" d="M32.4,58.3c0,7.7,6.5,13.9,14.6,13.9c8,0,14.6-6.2,14.6-13.9c0-7.7-6.5-13.9-14.6-13.9
			C38.9,44.4,32.4,50.6,32.4,58.3z"/>
		<path class="st3" d="M50.6,50.8c0,4.1,3.5,7.4,7.7,7.4c4.3,0,7.7-3.3,7.7-7.4c0-4.1-3.5-7.4-7.7-7.4
			C54.1,43.4,50.6,46.7,50.6,50.8z"/>
		<path class="st3" d="M39.1,41.1c0,5.8,4.9,10.5,10.9,10.5c6,0,10.9-4.7,10.9-10.5c0-5.8-4.9-10.5-10.9-10.5
			C44,30.7,39.1,35.4,39.1,41.1z"/>
	</g>
	<g>
		<path class="st3" d="M13,24.3c0,4.7,4,8.5,8.9,8.5c4.9,0,8.9-3.8,8.9-8.5s-4-8.5-8.9-8.5C17,15.8,13,19.6,13,24.3z"/>
		<path class="st3" d="M26.6,15.9c0,2.5,2.1,4.5,4.7,4.5c2.6,0,4.7-2,4.7-4.5c0-2.5-2.1-4.5-4.7-4.5C28.7,11.3,26.6,13.4,26.6,15.9z
			"/>
		<path class="st3" d="M6.4,12.5c0,6.9,5.9,12.5,13.1,12.5c7.2,0,13.1-5.6,13.1-12.5C32.6,5.6,26.8,0,19.5,0
			C12.3,0,6.4,5.6,6.4,12.5z"/>
	</g>
	<path class="st4" d="M23.3,14.3c0,3.7-3,6.8-6.8,6.8c-3.7,0-6.8-3-6.8-6.8c0-3.7,3-6.8,6.8-6.8C20.2,7.5,23.3,10.6,23.3,14.3z"/>
	<path class="st4" d="M13.6,51c0,1.3-1,2.3-2.3,2.3c-1.3,0-2.3-1-2.3-2.3c0-1.3,1-2.3,2.3-2.3C12.5,48.6,13.6,49.7,13.6,51z"/>
	<path class="st4" d="M44.6,56.2c0,2-1.6,3.7-3.7,3.7c-2,0-3.7-1.6-3.7-3.7c0-2,1.6-3.7,3.7-3.7C42.9,52.5,44.6,54.2,44.6,56.2z"/>
	<path class="st4" d="M57.8,74.6c0,3-2.4,5.4-5.4,5.4c-3,0-5.4-2.4-5.4-5.4c0-3,2.4-5.4,5.4-5.4C55.4,69.2,57.8,71.6,57.8,74.6z"/>
</g>
</svg>
