<!-- Generator: Adobe Illustrator 22.1.0, SVG Export Plug-In  -->
<svg version="1.1"
	 xmlns="http://www.w3.org/2000/svg" xmlns:xlink="http://www.w3.org/1999/xlink" xmlns:a="http://ns.adobe.com/AdobeSVGViewerExtensions/3.0/"
	 x="0px" y="0px" width="117.7px" height="135.7px" viewBox="0 0 117.7 135.7" style="enable-background:new 0 0 117.7 135.7;"
	 xml:space="preserve">
<style type="text/css">
	.st0{fill:#A67C52;}
	.st1{fill:#754C24;}
	.st2{fill:#C69C6D;}
	.st3{fill:#8C6239;}
	.st4{opacity:0.3;fill:#B2C3B3;}
	.st5{opacity:0.3;fill:#82A798;}
</style>
<defs>
</defs>
<g>
	<g>
		<path class="st0" d="M7.6,70.9c0,0,7.3,33.3,28.9,31.3C58,100.2,59,66.1,59,66.1s-4.5-2.3-26.3-0.3C11.4,67.8,7.6,70.9,7.6,70.9z"
			/>
		<path class="st1" d="M31.4,54.8c0,0-2.2-13.1,4.6-12.9l0.6,2C36.6,43.9,32.3,44.8,31.4,54.8z"/>
		<path class="st1" d="M7.7,72c-1.3-14.2,9.7-20.8,23.9-22.2c14.2-1.3,26.2,3.1,27.6,17.3c0,0-4.5-2.3-26.3-0.3
			C11.5,68.9,7.7,72,7.7,72z"/>
	</g>
	<g>
		<path class="st2" d="M21.4,118.3c0,0,14.1,22,29.1,14.7c14.9-7.2,6.5-32,6.5-32s-3.9-0.5-18.9,6.8
			C23.3,115.1,21.4,118.3,21.4,118.3z"/>
		<path class="st3" d="M34.1,100.4c0,0-5.1-8.9-0.1-10.5l0.9,1.3C35,91.2,32.1,93,34.1,100.4z"/>
		<path class="st3" d="M21.7,119.1c-4.8-9.8,1.4-17.5,11.2-22.3c9.8-4.8,19.7-4.8,24.4,5.1c0,0-3.9-0.5-18.9,6.8
			C23.6,115.8,21.7,119.1,21.7,119.1z"/>
	</g>
	<g>
		<path class="st0" d="M94,26.6c0,0-32.6-9.8-41.3,10C44,56.4,73.3,73.9,73.3,73.9s4.2-2.8,13-22.8C94.9,31.5,94,26.6,94,26.6z"/>
		<path class="st1" d="M96.5,55.2c0,0,12.5,4.5,9,10.3l-2-0.5C103.5,65,104.8,60.8,96.5,55.2z"/>
		<path class="st1" d="M93,26.2c13,5.7,13.5,18.5,7.8,31.6c-5.7,13-15.5,21.4-28.5,15.7c0,0,4.2-2.8,13-22.8
			C93.9,31,93,26.2,93,26.2z"/>
	</g>
	<g>
		<path class="st2" d="M59.8,72.1c0,0-18.4,28.7-1.7,42.6c16.6,13.7,41.5-9.6,41.5-9.6s-1.6-4.8-18.4-18.8
			C64.7,72.6,59.8,72.1,59.8,72.1z"/>
		<path class="st3" d="M88,77.5c0,0,7.8-10.8,12.4-5.8l-1,1.8C99.4,73.4,95.7,71.1,88,77.5z"/>
		<path class="st3" d="M59.1,72.9c9.1-11,21.6-7.9,32.6,1.2c11,9.1,16.4,20.8,7.3,31.8c0,0-1.6-4.8-18.4-18.8
			C64,73.4,59.1,72.9,59.1,72.9z"/>
	</g>
	<g>
		<path class="st2" d="M14.5,14.6c0,0-7.1,32.4,12.9,39.3C47.2,60.8,62,31.1,62,31.1s-3.1-3.9-23.1-10.9
			C19.2,13.4,14.5,14.6,14.5,14.6z"/>
		<path class="st3" d="M42.1,10c0,0,3.4-12.5,9.3-9.5l-0.3,2C51.1,2.4,46.9,1.5,42.1,10z"/>
		<path class="st3" d="M14.2,15.6c4.6-13.1,17-14.5,30.1-9.9C57.3,10.2,66.2,19,61.6,32.1c0,0-3.1-3.9-23.1-10.9
			C18.8,14.4,14.2,15.6,14.2,15.6z"/>
	</g>
	<polygon class="st4" points="25.2,135.7 92.5,135.7 117.7,49.7 0,49.7 	"/>
	<polygon class="st5" points="29.9,129.7 87.8,129.7 109.5,55.7 	"/>
</g>
</svg>
