<!-- Generator: Adobe Illustrator 22.1.0, SVG Export Plug-In  -->
<svg version="1.1"
	 xmlns="http://www.w3.org/2000/svg" xmlns:xlink="http://www.w3.org/1999/xlink" xmlns:a="http://ns.adobe.com/AdobeSVGViewerExtensions/3.0/"
	 x="0px" y="0px" width="48.9px" height="67.4px" viewBox="0 0 48.9 67.4" style="enable-background:new 0 0 48.9 67.4;"
	 xml:space="preserve">
<style type="text/css">
	.st0{fill:#333333;}
	.st1{fill:#736357;}
	.st2{fill:#534741;}
	.st3{fill:#98B67F;}
	.st4{fill:#86A070;}
</style>
<defs>
</defs>
<g>
	<path class="st0" d="M40.9,65.2c0,1.2,0.9,2.1,1.9,2.1H47c1.1,0,1.9-1,1.9-2.1V28.9c0-1.2-0.9-2.1-1.9-2.1h-4.1
		c-1.1,0-1.9,1-1.9,2.1V65.2z"/>
	<g>
		<path class="st1" d="M16.2,27.9V50v6.4v1.7c0,0.9,0.8,1.6,1.7,1.6h25.3c0.9,0,1-0.7,1-1.6V50c0-0.9-0.1-1.6-1-1.6
			c0,0-19.9,0.3-21.2-0.9c-3.8-3.6-3-19.6-3-19.6c0-0.7-0.6-0.8-1.4-0.8C16.9,27.1,16.2,27.1,16.2,27.9z"/>
		<path class="st2" d="M25,50.5c0,0.7-0.3,1.3-0.6,1.3c-0.3,0-0.6-0.6-0.6-1.3c0-0.7,0.3-1.3,0.6-1.3C24.8,49.1,25,49.7,25,50.5z"/>
		<path class="st2" d="M25.5,56c0,1.1-0.4,2.1-0.8,2.1c-0.5,0-0.8-0.9-0.8-2.1c0-1.1,0.4-2.1,0.8-2.1C25.1,54,25.5,54.9,25.5,56z"/>
		<g>
			<path class="st3" d="M29.7,33.7c0,6-5.1,10.9-11.4,10.9c-6.3,0-11.4-4.9-11.4-10.9c0-6,5.1-10.9,11.4-10.9
				C24.6,22.8,29.7,27.7,29.7,33.7z"/>
			<path class="st3" d="M12.3,22.9c0,3.2-2.7,5.8-6.1,5.8c-3.4,0-6.1-2.6-6.1-5.8c0-3.2,2.7-5.8,6.1-5.8
				C9.5,17.1,12.3,19.7,12.3,22.9z"/>
			<path class="st3" d="M38.1,18.6c0,8.9-7.5,16.1-16.8,16.1c-9.3,0-16.8-7.2-16.8-16.1C4.5,9.7,12,2.5,21.3,2.5
				C30.6,2.5,38.1,9.7,38.1,18.6z"/>
		</g>
	</g>
	<path class="st3" d="M0,8.2c0,4.5,3.7,8.2,8.2,8.2c4.5,0,8.2-3.7,8.2-8.2S12.7,0,8.2,0C3.7,0,0,3.7,0,8.2z"/>
	<path class="st4" d="M11.2,33.4c0,3.9,3.2,7.1,7.1,7.1s7.1-3.2,7.1-7.1c0-3.9-3.2-7.1-7.1-7.1S11.2,29.5,11.2,33.4z"/>
</g>
</svg>
