<!-- Generator: Adobe Illustrator 22.1.0, SVG Export Plug-In  -->
<svg version="1.1"
	 xmlns="http://www.w3.org/2000/svg" xmlns:xlink="http://www.w3.org/1999/xlink" xmlns:a="http://ns.adobe.com/AdobeSVGViewerExtensions/3.0/"
	 x="0px" y="0px" width="70.6px" height="70.6px" viewBox="0 0 70.6 70.6" style="enable-background:new 0 0 70.6 70.6;"
	 xml:space="preserve">
<style type="text/css">
	.st0{opacity:0.75;fill:url(#SVGID_1_);}
	.st1{fill:#FFFFFF;}
	.st2{fill:#E6E6E6;}
	.st3{opacity:0.75;fill:url(#SVGID_2_);}
</style>
<defs>
</defs>
<g>
	<radialGradient id="SVGID_1_" cx="35.2979" cy="35.2979" r="35.2979" gradientUnits="userSpaceOnUse">
		<stop  offset="0" style="stop-color:#FFFFFF"/>
		<stop  offset="1" style="stop-color:#FFFFFF;stop-opacity:0"/>
	</radialGradient>
	<path class="st0" d="M70.6,35.3c0,19.5-15.8,35.3-35.3,35.3C15.8,70.6,0,54.8,0,35.3C0,15.8,15.8,0,35.3,0
		C54.8,0,70.6,15.8,70.6,35.3z"/>
	<g>
		<path class="st1" d="M21.8,33.3c0,0,2.1,17.7,13.5,17.7c11.3,0,13.5-17.7,13.5-17.7s-2.2-1.4-13.7-1.4
			C23.9,31.9,21.8,33.3,21.8,33.3z"/>
		<path class="st1" d="M35,26.1c0,0-0.5-7,3-6.5l0.2,1C38.2,20.6,35.9,20.9,35,26.1z"/>
		<path class="st2" d="M21.8,33.9c0-7.5,6.1-10.4,13.5-10.4c7.5,0,13.5,2.9,13.5,10.4c0,0-2.2-1.4-13.7-1.4
			C23.9,32.5,21.8,33.9,21.8,33.9z"/>
	</g>
</g>
</svg>
