<!-- Generator: Adobe Illustrator 22.1.0, SVG Export Plug-In  -->
<svg version="1.1"
	 xmlns="http://www.w3.org/2000/svg" xmlns:xlink="http://www.w3.org/1999/xlink" xmlns:a="http://ns.adobe.com/AdobeSVGViewerExtensions/3.0/"
	 x="0px" y="0px" width="180.2px" height="315.3px" viewBox="0 0 180.2 315.3" style="enable-background:new 0 0 180.2 315.3;"
	 xml:space="preserve">
<style type="text/css">
	.st0{fill:#333333;}
	.st1{fill:#736357;}
	.st2{fill:#534741;}
	.st3{fill:#98B67F;}
	.st4{fill:#86A070;}
</style>
<defs>
</defs>
<g>
	<g>
		<path class="st0" d="M120.4,306.2c0,5.1-2.5,9.2-5.6,9.2h-12c-3.1,0-5.6-4.1-5.6-9.2V150.8c0-5.1,2.5-9.2,5.6-9.2h12
			c3.1,0,5.6,4.1,5.6,9.2V306.2z"/>
		<g>
			<path class="st1" d="M154.4,236.5v35.3V282v2.7c0,1.4-1.2,2.6-2.7,2.6h-40.3c-1.5,0-1.6-1.2-1.6-2.6v-12.9c0-1.4,0.1-2.6,1.6-2.6
				c0,0,31.7,0.5,33.8-1.5c6-5.8,4.7-31.2,4.7-31.2c0-1.2,1-1.3,2.2-1.3S154.4,235.3,154.4,236.5z"/>
			<path class="st2" d="M140.4,272.5c0,1.1,0.4,2.1,0.9,2.1c0.5,0,0.9-0.9,0.9-2.1c0-1.1-0.4-2.1-0.9-2.1
				C140.8,270.4,140.4,271.3,140.4,272.5z"/>
			<path class="st2" d="M139.7,281.4c0,1.8,0.6,3.3,1.3,3.3c0.7,0,1.3-1.5,1.3-3.3c0-1.8-0.6-3.3-1.3-3.3
				C140.3,278.1,139.7,279.5,139.7,281.4z"/>
			<g>
				<path class="st3" d="M133.1,245.9c0,9.6,8.1,17.4,18.2,17.4c10,0,18.2-7.8,18.2-17.4c0-9.6-8.1-17.4-18.2-17.4
					C141.2,228.5,133.1,236.3,133.1,245.9z"/>
				<path class="st3" d="M160.8,228.6c0,5.1,4.3,9.3,9.7,9.3c5.4,0,9.7-4.2,9.7-9.3c0-5.1-4.3-9.3-9.7-9.3
					C165.1,219.3,160.8,223.5,160.8,228.6z"/>
				<path class="st3" d="M119.6,221.8c0,14.2,12,25.6,26.8,25.6s26.8-11.5,26.8-25.6c0-14.2-12-25.6-26.8-25.6
					S119.6,207.6,119.6,221.8z"/>
			</g>
		</g>
		<g>
			<g>
				<path class="st1" d="M59.6,81.2v101.1v29.2v7.8c0,4.1,3.3,7.4,7.4,7.4h37c4.1,0,4.4-3.3,4.4-7.4v-37c0-4.1-0.3-7.4-4.4-7.4
					c0,0-13.4,1.4-19.1-4.3c-16.6-16.6-12.9-89.4-12.9-89.4c0-3.4-2.8-3.7-6.2-3.7C62.3,77.5,59.6,77.8,59.6,81.2z"/>
				<path class="st2" d="M69,158.1c0,6-1.1,10.9-2.5,10.9c-1.4,0-2.5-4.9-2.5-10.9c0-6,1.1-10.9,2.5-10.9
					C67.9,147.2,69,152.1,69,158.1z"/>
				<path class="st2" d="M78.4,192.2c0,3.1-0.7,5.5-1.6,5.5c-0.9,0-1.6-2.5-1.6-5.5c0-3.1,0.7-5.5,1.6-5.5
					C77.7,186.7,78.4,189.1,78.4,192.2z"/>
				<path class="st2" d="M96.7,193.4c0,3.3-0.6,6-1.4,6c-0.7,0-1.4-2.7-1.4-6c0-3.3,0.6-6,1.4-6C96.1,187.5,96.7,190.1,96.7,193.4z"
					/>
				<path class="st2" d="M84.9,207.1c0,5.2-0.8,9.5-1.9,9.5c-1,0-1.9-4.2-1.9-9.5c0-5.2,0.8-9.5,1.9-9.5
					C84.1,197.6,84.9,201.8,84.9,207.1z"/>
			</g>
			<g>
				<g>
					<path class="st1" d="M36,145.6v39.2v11.3v3c0,1.6,1.3,2.9,2.9,2.9h28.7c1.6,0,1.7-1.3,1.7-2.9v-14.4c0-1.6-0.1-2.9-1.7-2.9
						c0,0-19.5,0.5-21.7-1.7c-6.4-6.4-5-34.7-5-34.7c0-1.3-1.1-1.4-2.4-1.4C37.1,144.1,36,144.3,36,145.6z"/>
					<path class="st2" d="M47.8,196.3c0,1.2-0.3,2.2-0.6,2.2c-0.3,0-0.6-1-0.6-2.2c0-1.2,0.3-2.2,0.6-2.2
						C47.5,194.2,47.8,195.1,47.8,196.3z"/>
					<path class="st2" d="M50.5,189.1c0,1.3-0.2,2.3-0.5,2.3c-0.3,0-0.5-1-0.5-2.3c0-1.3,0.2-2.3,0.5-2.3
						C50.2,186.8,50.5,187.9,50.5,189.1z"/>
				</g>
				<g>
					<path class="st3" d="M39.7,171.3c0,6.2-5,11.2-11.2,11.2c-6.2,0-11.2-5-11.2-11.2c0-6.2,5-11.2,11.2-11.2
						C34.7,160.1,39.7,165.1,39.7,171.3z"/>
					<path class="st3" d="M27.9,164c0,6.4-5.2,11.5-11.5,11.5c-6.4,0-11.5-5.2-11.5-11.5c0-6.4,5.2-11.5,11.5-11.5
						C22.7,152.4,27.9,157.6,27.9,164z"/>
					<path class="st3" d="M63.2,147.5c0,14.6-11.8,26.4-26.4,26.4c-14.6,0-26.4-11.8-26.4-26.4c0-14.6,11.8-26.4,26.4-26.4
						C51.4,121.1,63.2,132.9,63.2,147.5z"/>
					<path class="st3" d="M33.9,126.4c0,9.4-7.6,16.9-16.9,16.9c-9.4,0-16.9-7.6-16.9-16.9c0-9.4,7.6-16.9,16.9-16.9
						C26.3,109.5,33.9,117,33.9,126.4z"/>
					<path class="st3" d="M41.2,117.2c0,5.5-4.5,10-10,10c-5.5,0-10-4.5-10-10c0-5.5,4.5-10,10-10C36.8,107.2,41.2,111.7,41.2,117.2
						z"/>
				</g>
			</g>
			<g>
				<path class="st3" d="M46.1,94.5c0,11.2,9.5,20.3,21.2,20.3c11.7,0,21.2-9.1,21.2-20.3c0-11.2-9.5-20.3-21.2-20.3
					C55.6,74.2,46.1,83.3,46.1,94.5z"/>
				<path class="st3" d="M72.9,78.4c0,6,5.1,10.8,11.3,10.8c6.2,0,11.3-4.8,11.3-10.8c0-6-5.1-10.8-11.3-10.8
					C77.9,67.5,72.9,72.4,72.9,78.4z"/>
				<path class="st3" d="M27.9,59.3c0,16.5,14,29.9,31.2,29.9c17.3,0,31.2-13.4,31.2-29.9c0-16.5-14-29.9-31.2-29.9
					C41.9,29.4,27.9,42.8,27.9,59.3z"/>
				<path class="st3" d="M67,43.1C67,51.9,74.4,59,83.6,59c9.2,0,16.6-7.1,16.6-15.9c0-8.8-7.4-15.9-16.6-15.9
					C74.4,27.2,67,34.3,67,43.1z"/>
				<path class="st3" d="M42.5,22.4c0,12.4,10.5,22.4,23.4,22.4c12.9,0,23.4-10,23.4-22.4C89.3,10,78.8,0,65.9,0
					C52.9,0,42.5,10,42.5,22.4z"/>
			</g>
		</g>
	</g>
	<path class="st4" d="M60.4,68.5c0,5.6-4.6,10.2-10.2,10.2c-5.6,0-10.2-4.6-10.2-10.2c0-5.6,4.6-10.2,10.2-10.2
		C55.8,58.3,60.4,62.9,60.4,68.5z"/>
	<path class="st4" d="M40.7,128.8c0,3.2-2.6,5.8-5.8,5.8c-3.2,0-5.8-2.6-5.8-5.8c0-3.2,2.6-5.8,5.8-5.8
		C38.1,123,40.7,125.6,40.7,128.8z"/>
	<path class="st4" d="M23,163.6c0,2.4-2,4.4-4.4,4.4c-2.4,0-4.4-2-4.4-4.4c0-2.4,2-4.4,4.4-4.4C21,159.1,23,161.1,23,163.6z"/>
	<path class="st4" d="M160.5,215c0,3.4-2.7,6.1-6.1,6.1s-6.1-2.7-6.1-6.1c0-3.4,2.7-6.1,6.1-6.1S160.5,211.6,160.5,215z"/>
</g>
</svg>
