<!-- Generator: Adobe Illustrator 22.1.0, SVG Export Plug-In  -->
<svg version="1.1"
	 xmlns="http://www.w3.org/2000/svg" xmlns:xlink="http://www.w3.org/1999/xlink" xmlns:a="http://ns.adobe.com/AdobeSVGViewerExtensions/3.0/"
	 x="0px" y="0px" width="134.9px" height="166.6px" viewBox="0 0 134.9 166.6" style="enable-background:new 0 0 134.9 166.6;"
	 xml:space="preserve">
<style type="text/css">
	.st0{fill:#998675;}
	.st1{fill:#C7B299;}
	.st2{fill:#736357;}
</style>
<defs>
</defs>
<g>
	<rect class="st0" width="134.9" height="166.6"/>
	<g>
		<path class="st1" d="M126.2,61.8c0,1.2-1,2.1-2.1,2.1H10.8c-1.2,0-2.1-1-2.1-2.1V24.3c0-1.2,1-2.1,2.1-2.1H124
			c1.2,0,2.1,1,2.1,2.1V61.8z"/>
	</g>
	<g>
		<path class="st1" d="M126.2,14.9c0,1.2-1,2.1-2.1,2.1H10.8c-1.2,0-2.1-1-2.1-2.1V8.6c0-1.2,1-2.1,2.1-2.1H124c1.2,0,2.1,1,2.1,2.1
			V14.9z"/>
	</g>
	<g>
		<path class="st1" d="M126.2,108.8c0,1.2-1,2.1-2.1,2.1H10.8c-1.2,0-2.1-1-2.1-2.1V71.3c0-1.2,1-2.1,2.1-2.1H124
			c1.2,0,2.1,1,2.1,2.1V108.8z"/>
	</g>
	<g>
		<path class="st1" d="M126.2,155.8c0,1.2-1,2.1-2.1,2.1H10.8c-1.2,0-2.1-1-2.1-2.1v-37.5c0-1.2,1-2.1,2.1-2.1H124
			c1.2,0,2.1,1,2.1,2.1V155.8z"/>
	</g>
	<g>
		<path class="st2" d="M90.1,43.2c0,1.2-1,2.1-2.1,2.1h-41c-1.2,0-2.1-1-2.1-2.1V43c0-1.2,1-2.1,2.1-2.1h41c1.2,0,2.1,1,2.1,2.1
			V43.2z"/>
	</g>
	<g>
		<path class="st2" d="M90.1,11.5c0,1.2-1,2.1-2.1,2.1h-41c-1.2,0-2.1-1-2.1-2.1v-0.2c0-1.2,1-2.1,2.1-2.1h41c1.2,0,2.1,1,2.1,2.1
			V11.5z"/>
	</g>
	<g>
		<path class="st2" d="M90.1,90.2c0,1.2-1,2.1-2.1,2.1h-41c-1.2,0-2.1-1-2.1-2.1v-0.2c0-1.2,1-2.1,2.1-2.1h41c1.2,0,2.1,1,2.1,2.1
			V90.2z"/>
	</g>
	<g>
		<path class="st2" d="M90.1,137.1c0,1.2-1,2.1-2.1,2.1h-41c-1.2,0-2.1-1-2.1-2.1v-0.3c0-1.2,1-2.1,2.1-2.1h41c1.2,0,2.1,1,2.1,2.1
			V137.1z"/>
	</g>
</g>
</svg>
